<svg width="680" height="180" viewBox="0 0 680 180" xmlns="http://www.w3.org/2000/svg">
  <!-- Icon mark — hexagonal brain chip -->
  <polygon points="100,40 148,40 172,82 148,124 100,124 76,82" fill="none" stroke="#534AB7" stroke-width="2.5"/>
  <polygon points="100,55 136,55 154,82 136,109 100,109 82,82" fill="#EEEDFE" stroke="#534AB7" stroke-width="1.2"/>
  <line x1="88" y1="82" x2="148" y2="82" stroke="#534AB7" stroke-width="1.5" stroke-linecap="round"/>
  <line x1="112" y1="58" x2="112" y2="106" stroke="#534AB7" stroke-width="1.5" stroke-linecap="round"/>
  <line x1="130" y1="58" x2="130" y2="106" stroke="#534AB7" stroke-width="1.5" stroke-linecap="round"/>
  <circle cx="112" cy="82" r="4" fill="#534AB7"/>
  <circle cx="130" cy="82" r="4" fill="#534AB7"/>
  <circle cx="112" cy="67" r="3" fill="#7F77DD"/>
  <circle cx="130" cy="67" r="3" fill="#7F77DD"/>
  <circle cx="112" cy="97" r="3" fill="#7F77DD"/>
  <circle cx="130" cy="97" r="3" fill="#7F77DD"/>
  <line x1="76" y1="67" x2="88" y2="67" stroke="#AFA9EC" stroke-width="1.5" stroke-linecap="round"/>
  <line x1="76" y1="97" x2="88" y2="97" stroke="#AFA9EC" stroke-width="1.5" stroke-linecap="round"/>
  <line x1="148" y1="67" x2="160" y2="67" stroke="#AFA9EC" stroke-width="1.5" stroke-linecap="round"/>
  <line x1="148" y1="97" x2="160" y2="97" stroke="#AFA9EC" stroke-width="1.5" stroke-linecap="round"/>
  <rect x="152" y="30" width="18" height="13" rx="4" fill="#1D9E75" opacity="0.9"/>
  <polygon points="157,43 163,43 160,48" fill="#1D9E75" opacity="0.9"/>
  <circle cx="157" cy="37" r="1.5" fill="white"/>
  <circle cx="162" cy="37" r="1.5" fill="white"/>
  <circle cx="167" cy="37" r="1.5" fill="white"/>
  <!-- Wordmark -->
  <text font-family="'Georgia', 'Times New Roman', serif" font-size="42" font-weight="700" fill="#26215C" x="195" y="100" letter-spacing="-1">YASSI - <tspan fill="#534AB7">G P T</tspan></text>
  <text font-family="'Georgia', serif" font-size="14" font-weight="400" fill="#7F77DD" x="196" y="122" letter-spacing="2">SEMANTIC KERNEL · ORLEANS · MCP</text>
  <line x1="195" y1="136" x2="580" y2="136" stroke="#EEEDFE" stroke-width="1.5"/>
  <!-- Badges -->
  <rect x="195" y="148" width="58" height="22" rx="11" fill="#EEEDFE" stroke="#AFA9EC" stroke-width="0.5"/>
  <text font-family="'Georgia', serif" font-size="11" fill="#3C3489" x="224" y="163" text-anchor="middle">.NET 10</text>
  <rect x="263" y="148" width="68" height="22" rx="11" fill="#E1F5EE" stroke="#9FE1CB" stroke-width="0.5"/>
  <text font-family="'Georgia', serif" font-size="11" fill="#085041" x="297" y="163" text-anchor="middle">Orleans</text>
  <rect x="341" y="148" width="44" height="22" rx="11" fill="#E6F1FB" stroke="#B5D4F4" stroke-width="0.5"/>
  <text font-family="'Georgia', serif" font-size="11" fill="#0C447C" x="363" y="163" text-anchor="middle">MCP</text>
  <rect x="395" y="148" width="60" height="22" rx="11" fill="#FAEEDA" stroke="#FAC775" stroke-width="0.5"/>
  <text font-family="'Georgia', serif" font-size="11" fill="#633806" x="425" y="163" text-anchor="middle">Semantic</text>
  <rect x="465" y="148" width="44" height="22" rx="11" fill="#EAF3DE" stroke="#C0DD97" stroke-width="0.5"/>
  <text font-family="'Georgia', serif" font-size="11" fill="#27500A" x="487" y="163" text-anchor="middle">Groq</text>
</svg>
